/* XPM */
static char * buffalo_xpm[] = {
"32 32 2 1",
" 	c #FFFFFF",
".	c #000000",
"                                ",
"                                ",
"                                ",
"    ...........                 ",
"    .          .                ",
"    .           .               ",
"    .            .              ",
"    .            .              ",
"    .             .             ",
"    .              .            ",
"    .              .            ",
"    .             .             ",
"    .             .             ",
"    .            .              ",
"    .            .              ",
"    .............               ",
"    .            .              ",
"    .             .             ",
"    .              .            ",
"    .               .           ",
"    .               .           ",
"    .                .          ",
"    .                 .         ",
"    .                  .        ",
"    .                 .         ",
"    .                .          ",
"    .               .           ",
"    .              .            ",
"    ...............             ",
"                                ",
"                                ",
"                                "};
